<svg width="11" height="17" viewBox="0 0 11 17" fill="none" xmlns="http://www.w3.org/2000/svg">
<path d="M0.446943 14.4734C0.159033 14.7594 -6.61302e-07 15.1288 -6.78029e-07 15.5115C-6.94756e-07 15.8942 0.159033 16.2635 0.446943 16.5496C0.588235 16.6911 0.762036 16.8045 0.956792 16.8822C1.15155 16.9598 1.3628 17 1.5765 17C1.79019 17 2.00144 16.9598 2.1962 16.8822C2.39096 16.8045 2.56476 16.6911 2.70605 16.5496L11 8.5L2.70605 0.450445C2.56476 0.308882 2.39096 0.195499 2.1962 0.117833C2.00144 0.0401678 1.7902 -4.02573e-07 1.5765 -4.11914e-07C1.3628 -4.21255e-07 1.15155 0.0401678 0.956793 0.117833C0.762036 0.195499 0.588236 0.308882 0.446943 0.450445C0.159034 0.736468 -4.83377e-08 1.10584 -6.50649e-08 1.48851C-8.17921e-08 1.87118 0.159034 2.24055 0.446943 2.52657L6.60278 8.5L0.446943 14.4734Z" fill="#45576B"/>
</svg>
