<svg width="11" height="17" viewBox="0 0 11 17" fill="none" xmlns="http://www.w3.org/2000/svg">
<path d="M10.5531 2.52658C10.841 2.24055 11 1.87118 11 1.48851C11 1.10584 10.841 0.736469 10.5531 0.450447C10.4118 0.308884 10.238 0.1955 10.0432 0.117834C9.84845 0.0401689 9.6372 1.14922e-07 9.4235 1.12374e-07C9.2098 1.09826e-07 8.99856 0.0401689 8.8038 0.117834C8.60904 0.1955 8.43524 0.308884 8.29395 0.450447L1.01361e-07 8.5L8.29395 16.5496C8.43524 16.6911 8.60904 16.8045 8.8038 16.8822C8.99856 16.9598 9.2098 17 9.4235 17C9.6372 17 9.84845 16.9598 10.0432 16.8822C10.238 16.8045 10.4118 16.6911 10.5531 16.5496C10.841 16.2635 11 15.8942 11 15.5115C11 15.1288 10.841 14.7594 10.5531 14.4734L4.39722 8.5L10.5531 2.52658Z" fill="#45576B"/>
</svg>
