<svg width="17" height="16" viewBox="0 0 17 16" fill="none" xmlns="http://www.w3.org/2000/svg">
<path d="M13.4583 3.0236H12.0417V2.34178C12.0417 1.79929 11.8178 1.27902 11.4193 0.895425C11.0208 0.511828 10.4803 0.296326 9.91667 0.296326H2.125C1.56141 0.296326 1.02091 0.511828 0.622398 0.895425C0.223883 1.27902 0 1.79929 0 2.34178L0 12.5691H1.44571C1.42748 12.6819 1.41778 12.7958 1.41667 12.91C1.41667 13.5429 1.67786 14.1498 2.1428 14.5974C2.60773 15.0449 3.23832 15.2963 3.89583 15.2963C4.55335 15.2963 5.18393 15.0449 5.64887 14.5974C6.1138 14.1498 6.375 13.5429 6.375 12.91C6.37389 12.7958 6.36418 12.6819 6.34596 12.5691H10.654C10.6358 12.6819 10.6261 12.7958 10.625 12.91C10.625 13.5429 10.8862 14.1498 11.3511 14.5974C11.8161 15.0449 12.4467 15.2963 13.1042 15.2963C13.7617 15.2963 14.3923 15.0449 14.8572 14.5974C15.3221 14.1498 15.5833 13.5429 15.5833 12.91C15.5822 12.7958 15.5725 12.6819 15.5543 12.5691H17V6.43269C16.9989 5.52887 16.6254 4.66239 15.9614 4.02329C15.2975 3.3842 14.3973 3.02468 13.4583 3.0236ZM13.4583 4.38723C14.0219 4.38723 14.5624 4.60274 14.9609 4.98633C15.3595 5.36993 15.5833 5.8902 15.5833 6.43269V7.11451H12.0417V4.38723H13.4583ZM4.95833 12.91C4.95833 13.1812 4.84639 13.4413 4.64713 13.6331C4.44788 13.8249 4.17763 13.9327 3.89583 13.9327C3.61404 13.9327 3.34379 13.8249 3.14453 13.6331C2.94527 13.4413 2.83333 13.1812 2.83333 12.91C2.83377 12.7934 2.85609 12.6779 2.89921 12.5691H4.89246C4.93558 12.6779 4.9579 12.7934 4.95833 12.91ZM10.625 11.2054H1.41667V2.34178C1.41667 2.16095 1.49129 1.98753 1.62413 1.85966C1.75697 1.7318 1.93714 1.65996 2.125 1.65996H9.91667C10.1045 1.65996 10.2847 1.7318 10.4175 1.85966C10.5504 1.98753 10.625 2.16095 10.625 2.34178V11.2054ZM14.1667 12.91C14.1667 13.1812 14.0547 13.4413 13.8555 13.6331C13.6562 13.8249 13.386 13.9327 13.1042 13.9327C12.8224 13.9327 12.5521 13.8249 12.3529 13.6331C12.1536 13.4413 12.0417 13.1812 12.0417 12.91C12.042 12.7934 12.0643 12.6779 12.1075 12.5691H14.1008C14.144 12.6779 14.1664 12.7934 14.1667 12.91ZM12.0417 11.2054V8.47814H15.5833V11.2054H12.0417Z" fill="#64707B"/>
</svg>
