<svg width="14" height="17" viewBox="0 0 14 17" fill="none" xmlns="http://www.w3.org/2000/svg">
<path d="M6.97116 16.6483L6.48759 16.2338C5.82094 15.6756 0 10.6484 0 6.97116C0 3.1211 3.1211 0 6.97116 0C10.8212 0 13.9423 3.1211 13.9423 6.97116C13.9423 10.6484 8.12138 15.6756 7.4575 16.2366L6.97116 16.6483ZM6.97116 1.50737C3.95502 1.51078 1.51082 3.95499 1.5074 6.97113C1.5074 9.28127 5.08866 12.9717 6.97116 14.6607C8.85369 12.971 12.4349 9.27847 12.4349 6.97113C12.4315 3.95499 9.98733 1.51082 6.97116 1.50737Z" fill="#64707B"/>
<path d="M6.97034 9.73444C5.44421 9.73444 4.20703 8.49726 4.20703 6.97113C4.20703 5.445 5.44421 4.20782 6.97034 4.20782C8.49647 4.20782 9.73365 5.445 9.73365 6.97113C9.73365 8.49726 8.4965 9.73444 6.97034 9.73444ZM6.97034 5.58945C6.20727 5.58945 5.58869 6.20803 5.58869 6.9711C5.58869 7.73417 6.20727 8.35275 6.97034 8.35275C7.7334 8.35275 8.35199 7.73417 8.35199 6.9711C8.35199 6.20803 7.73344 5.58945 6.97034 5.58945Z" fill="#64707B"/>
</svg>
