<svg width="18" height="11" viewBox="0 0 18 11" fill="none" xmlns="http://www.w3.org/2000/svg">
<path d="M15.1493 10.3437C15.4438 10.6055 15.8241 10.7501 16.2181 10.7501C16.612 10.7501 16.9923 10.6055 17.2868 10.3437C17.4326 10.2153 17.5493 10.0573 17.6293 9.88025C17.7092 9.70319 17.7506 9.51115 17.7506 9.31688C17.7506 9.1226 17.7092 8.93056 17.6293 8.7535C17.5493 8.57645 17.4326 8.41845 17.2868 8.29L8.99931 0.75L0.711808 8.29C0.56606 8.41845 0.449325 8.57645 0.369364 8.7535C0.289402 8.93056 0.248047 9.1226 0.248047 9.31688C0.248047 9.51115 0.289402 9.70319 0.369364 9.88025C0.449325 10.0573 0.56606 10.2153 0.711808 10.3437C1.00629 10.6055 1.38657 10.7501 1.78056 10.7501C2.17454 10.7501 2.55483 10.6055 2.84931 10.3437L8.99931 4.7475L15.1493 10.3437Z" fill="#64707B"/>
</svg>
