<svg width="9" height="9" viewBox="0 0 9 9" fill="none" xmlns="http://www.w3.org/2000/svg">
<path d="M8.77628 3.89844V5.25781H0.979403V3.89844H8.77628ZM5.6044 0.578125V8.85938H4.15909V0.578125H5.6044Z" fill="#B30F97"/>
<path d="M8.77628 3.89844H9.77628V2.89844H8.77628V3.89844ZM8.77628 5.25781V6.25781H9.77628V5.25781H8.77628ZM0.979403 5.25781H-0.0205965V6.25781H0.979403V5.25781ZM0.979403 3.89844V2.89844H-0.0205965V3.89844H0.979403ZM5.6044 0.578125H6.6044V-0.421875H5.6044V0.578125ZM5.6044 8.85938V9.85938H6.6044V8.85938H5.6044ZM4.15909 8.85938H3.15909V9.85938H4.15909V8.85938ZM4.15909 0.578125V-0.421875H3.15909V0.578125H4.15909ZM7.77628 3.89844V5.25781H9.77628V3.89844H7.77628ZM8.77628 4.25781H0.979403V6.25781H8.77628V4.25781ZM1.9794 5.25781V3.89844H-0.0205965V5.25781H1.9794ZM0.979403 4.89844H8.77628V2.89844H0.979403V4.89844ZM4.6044 0.578125V8.85938H6.6044V0.578125H4.6044ZM5.6044 7.85938H4.15909V9.85938H5.6044V7.85938ZM5.15909 8.85938V0.578125H3.15909V8.85938H5.15909ZM4.15909 1.57812H5.6044V-0.421875H4.15909V1.57812Z" fill="#E2E2E2"/>
</svg>
