<svg width="26" height="27" viewBox="0 0 26 27" fill="none" xmlns="http://www.w3.org/2000/svg">
<path d="M5.69565 25C5.69565 25.5523 5.24794 26 4.69565 26H2C1.44772 26 1 25.5523 1 25V9.6087C1 9.05641 1.44772 8.6087 2 8.6087H4.69565C5.24793 8.6087 5.69565 9.05641 5.69565 9.6087V25ZM15.3478 25C15.3478 25.5523 14.9001 26 14.3478 26H11.6522C11.0999 26 10.6522 25.5523 10.6522 25V2C10.6522 1.44772 11.0999 1 11.6522 1H14.3478C14.9001 1 15.3478 1.44772 15.3478 2V25ZM25 25C25 25.5523 24.5523 26 24 26H21.0435C20.4912 26 20.0435 25.5523 20.0435 25V16.9457C20.0435 16.3934 20.4912 15.9457 21.0435 15.9457H24C24.5523 15.9457 25 16.3934 25 16.9457V25Z" fill="white" stroke="#C4C4C4"/>
</svg>
